<?xml version="1.0" encoding="UTF-8"?>
<svg xmlns="http://www.w3.org/2000/svg" xmlns:xlink="http://www.w3.org/1999/xlink" width="38.25pt" height="38.249999pt" viewBox="0 0 38.25 38.249999" version="1.2">
<defs>
<clipPath id="clip1">
  <path d="M 0 0 L 37.515625 0 L 37.515625 37.515625 L 0 37.515625 Z M 0 0 "/>
</clipPath>
<clipPath id="clip2">
  <path d="M 12.648438 7.652344 L 25 7.652344 L 25 29.722656 L 12.648438 29.722656 Z M 12.648438 7.652344 "/>
</clipPath>
</defs>
<g id="surface1">
<g clip-path="url(#clip1)" clip-rule="nonzero">
<path style=" stroke:none;fill-rule:nonzero;fill:rgb(6.669617%,58.81958%,96.078491%);fill-opacity:1;" d="M 36.574219 18.75 C 36.574219 16.832031 37.527344 14.800781 36.941406 13.074219 C 36.339844 11.285156 34.296875 10.183594 33.171875 8.691406 C 32.035156 7.1875 31.5625 4.992188 30 3.898438 C 28.449219 2.820312 26.132812 3.0625 24.273438 2.472656 C 22.476562 1.917969 20.761719 0.390625 18.773438 0.390625 C 16.78125 0.390625 15.0625 1.910156 13.269531 2.472656 C 11.410156 3.054688 9.089844 2.8125 7.539062 3.898438 C 5.972656 4.992188 5.503906 7.1875 4.363281 8.691406 C 3.234375 10.183594 1.199219 11.285156 0.589844 13.074219 C 0.0078125 14.800781 0.957031 16.832031 0.957031 18.75 C 0.957031 20.664062 0 22.699219 0.589844 24.425781 C 1.191406 26.214844 3.234375 27.316406 4.355469 28.808594 C 5.496094 30.3125 5.964844 32.507812 7.53125 33.601562 C 9.082031 34.6875 11.394531 34.445312 13.261719 35.027344 C 15.0625 35.582031 16.773438 37.109375 18.765625 37.109375 C 20.753906 37.109375 22.476562 35.589844 24.265625 35.027344 C 26.125 34.445312 28.449219 34.6875 30 33.601562 C 31.5625 32.507812 32.035156 30.3125 33.171875 28.808594 C 34.304688 27.316406 36.339844 26.214844 36.941406 24.425781 C 37.527344 22.691406 36.574219 20.660156 36.574219 18.75 Z M 36.574219 18.75 "/>
</g>
<g clip-path="url(#clip2)" clip-rule="nonzero">
<path style=" stroke:none;fill-rule:nonzero;fill:rgb(100%,100%,100%);fill-opacity:1;" d="M 24.902344 15.378906 L 20.894531 15.378906 L 20.894531 13.171875 C 20.894531 12.03125 20.988281 11.316406 22.671875 11.316406 L 24.796875 11.316406 L 24.796875 7.804688 C 23.761719 7.703125 22.722656 7.652344 21.679688 7.652344 C 18.59375 7.652344 16.34375 9.480469 16.34375 12.839844 L 16.34375 15.378906 L 12.929688 15.378906 L 12.929688 19.789062 L 16.34375 19.789062 L 16.34375 29.722656 L 20.894531 29.722656 L 20.894531 19.789062 L 24.378906 19.785156 Z M 24.902344 15.378906 "/>
</g>
</g>
</svg>
