<?xml version="1.0" encoding="UTF-8"?>
<svg xmlns="http://www.w3.org/2000/svg" xmlns:xlink="http://www.w3.org/1999/xlink" width="38.25pt" height="38.249999pt" viewBox="0 0 38.25 38.249999" version="1.2">
<defs>
<clipPath id="clip1">
  <path d="M 0 0 L 37.515625 0 L 37.515625 37.515625 L 0 37.515625 Z M 0 0 "/>
</clipPath>
<clipPath id="clip2">
  <path d="M 7.738281 7.34375 L 30.542969 7.34375 L 30.542969 30 L 7.738281 30 Z M 7.738281 7.34375 "/>
</clipPath>
</defs>
<g id="surface1">
<g clip-path="url(#clip1)" clip-rule="nonzero">
<path style=" stroke:none;fill-rule:nonzero;fill:rgb(25.099182%,25.099182%,27.839661%);fill-opacity:1;" d="M 36.960938 18.554688 C 36.960938 16.617188 37.925781 14.5625 37.332031 12.820312 C 36.722656 11.011719 34.660156 9.898438 33.523438 8.390625 C 32.371094 6.871094 31.898438 4.652344 30.316406 3.546875 C 28.75 2.457031 26.410156 2.699219 24.53125 2.105469 C 22.714844 1.542969 20.984375 0 18.972656 0 C 16.957031 0 15.222656 1.535156 13.410156 2.105469 C 11.53125 2.691406 9.183594 2.449219 7.617188 3.546875 C 6.035156 4.652344 5.5625 6.871094 4.410156 8.390625 C 3.265625 9.898438 1.210938 11.011719 0.59375 12.820312 C 0.0078125 14.5625 0.964844 16.617188 0.964844 18.554688 C 0.964844 20.492188 0 22.546875 0.59375 24.289062 C 1.203125 26.101562 3.265625 27.214844 4.402344 28.71875 C 5.554688 30.242188 6.03125 32.457031 7.609375 33.5625 C 9.175781 34.660156 11.515625 34.417969 13.402344 35.003906 C 15.222656 35.566406 16.953125 37.109375 18.964844 37.109375 C 20.976562 37.109375 22.714844 35.574219 24.523438 35.003906 C 26.402344 34.417969 28.75 34.660156 30.316406 33.5625 C 31.898438 32.457031 32.371094 30.242188 33.523438 28.71875 C 34.667969 27.214844 36.722656 26.101562 37.332031 24.289062 C 37.925781 22.539062 36.960938 20.484375 36.960938 18.554688 Z M 36.960938 18.554688 "/>
</g>
<g clip-path="url(#clip2)" clip-rule="nonzero">
<path style=" stroke:none;fill-rule:evenodd;fill:rgb(100%,100%,100%);fill-opacity:1;" d="M 19.140625 7.582031 C 12.84375 7.582031 7.738281 12.6875 7.738281 18.984375 C 7.738281 24.023438 11.003906 28.296875 15.535156 29.804688 C 16.105469 29.90625 16.3125 29.554688 16.3125 29.253906 C 16.3125 28.984375 16.304688 28.265625 16.300781 27.316406 C 13.128906 28.003906 12.457031 25.785156 12.457031 25.785156 C 11.941406 24.46875 11.191406 24.117188 11.191406 24.117188 C 10.15625 23.410156 11.269531 23.425781 11.269531 23.425781 C 12.414062 23.507812 13.015625 24.601562 13.015625 24.601562 C 14.035156 26.34375 15.6875 25.839844 16.335938 25.546875 C 16.4375 24.8125 16.734375 24.308594 17.058594 24.023438 C 14.527344 23.738281 11.867188 22.757812 11.867188 18.390625 C 11.867188 17.144531 12.308594 16.128906 13.039062 15.328125 C 12.921875 15.039062 12.53125 13.882812 13.152344 12.3125 C 13.152344 12.3125 14.109375 12.003906 16.285156 13.480469 C 17.195312 13.226562 18.171875 13.101562 19.140625 13.097656 C 20.109375 13.101562 21.085938 13.226562 21.996094 13.480469 C 24.171875 12.003906 25.128906 12.3125 25.128906 12.3125 C 25.75 13.882812 25.359375 15.039062 25.242188 15.328125 C 25.972656 16.128906 26.410156 17.144531 26.410156 18.390625 C 26.410156 22.769531 23.746094 23.734375 21.207031 24.015625 C 21.617188 24.367188 21.980469 25.0625 21.980469 26.125 C 21.980469 27.648438 21.964844 28.878906 21.964844 29.253906 C 21.964844 29.558594 22.171875 29.914062 22.75 29.800781 C 27.277344 28.289062 30.542969 24.019531 30.542969 18.984375 C 30.542969 12.6875 25.4375 7.582031 19.140625 7.582031 Z M 19.140625 7.582031 "/>
</g>
</g>
</svg>
