<?xml version="1.0" encoding="UTF-8"?>
<svg xmlns="http://www.w3.org/2000/svg" xmlns:xlink="http://www.w3.org/1999/xlink" width="38.25pt" height="38.249999pt" viewBox="0 0 38.25 38.249999" version="1.2">
<defs>
<clipPath id="clip1">
  <path d="M 0 0 L 37.515625 0 L 37.515625 37.515625 L 0 37.515625 Z M 0 0 "/>
</clipPath>
<clipPath id="clip2">
  <path d="M 8.058594 14 L 14 14 L 14 28.375 L 8.058594 28.375 Z M 8.058594 14 "/>
</clipPath>
<clipPath id="clip3">
  <path d="M 14 14 L 30.125 14 L 30.125 28.375 L 14 28.375 Z M 14 14 "/>
</clipPath>
<clipPath id="clip4">
  <path d="M 8.058594 8.515625 L 14 8.515625 L 14 14 L 8.058594 14 Z M 8.058594 8.515625 "/>
</clipPath>
</defs>
<g id="surface1">
<g clip-path="url(#clip1)" clip-rule="nonzero">
<path style=" stroke:none;fill-rule:nonzero;fill:rgb(3.919983%,39.99939%,76.078796%);fill-opacity:1;" d="M 36.960938 18.554688 C 36.960938 16.617188 37.925781 14.5625 37.332031 12.820312 C 36.722656 11.011719 34.660156 9.898438 33.523438 8.390625 C 32.371094 6.871094 31.898438 4.652344 30.316406 3.546875 C 28.75 2.457031 26.410156 2.699219 24.53125 2.105469 C 22.714844 1.542969 20.984375 0 18.972656 0 C 16.957031 0 15.222656 1.535156 13.410156 2.105469 C 11.53125 2.691406 9.183594 2.449219 7.617188 3.546875 C 6.035156 4.652344 5.5625 6.871094 4.410156 8.390625 C 3.265625 9.898438 1.210938 11.011719 0.59375 12.820312 C 0.0078125 14.5625 0.964844 16.617188 0.964844 18.554688 C 0.964844 20.492188 0 22.546875 0.59375 24.289062 C 1.203125 26.101562 3.265625 27.214844 4.402344 28.71875 C 5.554688 30.242188 6.03125 32.457031 7.609375 33.5625 C 9.175781 34.660156 11.515625 34.417969 13.402344 35.003906 C 15.222656 35.566406 16.953125 37.109375 18.964844 37.109375 C 20.976562 37.109375 22.714844 35.574219 24.523438 35.003906 C 26.402344 34.417969 28.75 34.660156 30.316406 33.5625 C 31.898438 32.457031 32.371094 30.242188 33.523438 28.71875 C 34.667969 27.214844 36.722656 26.101562 37.332031 24.289062 C 37.925781 22.539062 36.960938 20.484375 36.960938 18.554688 Z M 36.960938 18.554688 "/>
</g>
<g clip-path="url(#clip2)" clip-rule="nonzero">
<path style=" stroke:none;fill-rule:nonzero;fill:rgb(100%,100%,100%);fill-opacity:1;" d="M 8.640625 14.558594 L 12.589844 14.558594 C 12.746094 14.558594 12.878906 14.609375 12.992188 14.71875 C 13.101562 14.828125 13.15625 14.957031 13.15625 15.113281 L 13.15625 27.824219 C 13.15625 27.976562 13.101562 28.105469 12.992188 28.214844 C 12.878906 28.324219 12.746094 28.375 12.589844 28.375 L 8.640625 28.375 C 8.480469 28.375 8.347656 28.324219 8.238281 28.214844 C 8.125 28.105469 8.070312 27.976562 8.070312 27.824219 L 8.070312 15.113281 C 8.070312 14.957031 8.125 14.828125 8.238281 14.71875 C 8.347656 14.609375 8.480469 14.558594 8.640625 14.558594 Z M 8.640625 14.558594 "/>
</g>
<g clip-path="url(#clip3)" clip-rule="nonzero">
<path style=" stroke:none;fill-rule:nonzero;fill:rgb(100%,100%,100%);fill-opacity:1;" d="M 24.441406 14.425781 C 23.695312 14.398438 22.976562 14.515625 22.285156 14.785156 C 21.59375 15.054688 20.988281 15.445312 20.464844 15.964844 C 20.378906 16.054688 20.277344 16.074219 20.160156 16.03125 C 20.039062 15.984375 19.980469 15.902344 19.980469 15.777344 L 19.980469 15.109375 C 19.980469 14.953125 19.925781 14.824219 19.816406 14.714844 C 19.703125 14.605469 19.570312 14.554688 19.414062 14.554688 L 15.417969 14.554688 C 15.257812 14.554688 15.125 14.609375 15.011719 14.71875 C 14.902344 14.828125 14.847656 14.960938 14.851562 15.117188 C 14.886719 17.46875 14.851562 25.617188 14.851562 27.824219 C 14.851562 27.972656 14.90625 28.101562 15.011719 28.210938 C 15.121094 28.320312 15.253906 28.375 15.40625 28.375 L 19.417969 28.375 C 19.574219 28.375 19.707031 28.324219 19.820312 28.214844 C 19.929688 28.105469 19.984375 27.976562 19.984375 27.824219 L 19.984375 20.898438 C 19.953125 20.515625 19.988281 20.140625 20.097656 19.769531 C 20.269531 19.261719 20.582031 18.855469 21.027344 18.542969 C 21.472656 18.230469 21.96875 18.078125 22.515625 18.078125 C 24.257812 18.078125 25.058594 19.355469 25.058594 21.226562 L 25.058594 27.824219 C 25.058594 27.972656 25.113281 28.101562 25.21875 28.207031 C 25.328125 28.316406 25.457031 28.371094 25.609375 28.375 L 29.542969 28.375 C 29.699219 28.375 29.835938 28.324219 29.945312 28.214844 C 30.054688 28.105469 30.109375 27.976562 30.109375 27.824219 L 30.109375 20.691406 C 30.109375 16.410156 27.613281 14.425781 24.441406 14.425781 Z M 24.441406 14.425781 "/>
</g>
<g clip-path="url(#clip4)" clip-rule="nonzero">
<path style=" stroke:none;fill-rule:nonzero;fill:rgb(100%,100%,100%);fill-opacity:1;" d="M 10.570312 13.015625 L 10.613281 13.015625 C 12.191406 13.015625 13.15625 12.019531 13.15625 10.761719 C 13.15625 9.503906 12.179688 8.515625 10.613281 8.515625 C 9.050781 8.515625 8.070312 9.484375 8.070312 10.765625 C 8.070312 12.050781 9.054688 13.015625 10.570312 13.015625 Z M 10.570312 13.015625 "/>
</g>
</g>
</svg>
