<svg width="100%" height="100%" viewBox="0 0 155 35" fill="none" xmlns="http://www.w3.org/2000/svg"><path d="M20.5702 25.9186C19.7307 29.9953 17.3088 32.0171 13.3692 32.0171C10.1077 32.0171 8.49316 30.625 8.49316 27.8741C8.49316 27.2775 8.55775 26.6146 8.71921 25.9186L12.239 8.98203C13.0786 4.90533 15.4682 2.88354 19.44 2.88354C22.7015 2.88354 24.3484 4.27559 24.3484 7.02654C24.3484 7.62313 24.2838 8.25286 24.1223 8.98203L23.2505 12.9924H18.665L19.5046 8.98203C19.5369 8.78317 19.5692 8.5843 19.5692 8.41858C19.5692 7.7557 19.214 7.39112 18.4713 7.39112H18.439C17.5348 7.39112 16.9859 7.92142 16.7598 8.98203L13.2723 25.9186C13.24 26.1174 13.2077 26.3163 13.2077 26.482C13.2077 27.1781 13.563 27.5095 14.3057 27.5095C15.2098 27.5095 15.7911 26.9792 15.9848 25.9186L16.8244 21.9082H21.4098L20.5702 25.9186Z" fill="var(--icon-color)"></path><path d="M33.6484 25.9186C32.8088 29.9953 30.3869 32.0171 26.4473 32.0171C23.1859 32.0171 21.5713 30.625 21.5713 27.8741C21.5713 27.2775 21.6359 26.6146 21.7973 25.9186L25.3171 8.98203C26.1567 4.90533 28.5463 2.88354 32.5182 2.88354C35.7796 2.88354 37.4265 4.27559 37.4265 7.02654C37.4265 7.62313 37.3619 8.25286 37.2005 8.98203L33.6484 25.9186ZM32.5827 8.98203C32.615 8.78317 32.6473 8.5843 32.6473 8.41858C32.6473 7.7557 32.2921 7.39112 31.5494 7.39112H31.5171C30.613 7.39112 30.064 7.92142 29.838 8.98203L26.3505 25.9186C26.3182 26.1174 26.2859 26.3163 26.2859 26.482C26.2859 27.1781 26.6411 27.5095 27.3838 27.5095C28.288 27.5095 28.8692 26.9792 29.063 25.9186L32.5827 8.98203Z" fill="var(--icon-color)"></path><path d="M39.9454 3.31445H46.2746C49.2777 3.31445 50.7631 4.67335 50.7631 7.35801C50.7631 7.98775 50.6986 8.65063 50.5371 9.41294L47.2111 25.4546C46.3715 29.4982 44.0142 31.5531 40.1715 31.5531H34.0684L39.9454 3.31445ZM43.5944 7.82203L39.6225 27.0787H40.9788C41.8829 27.0787 42.4319 26.5484 42.6579 25.4877L45.984 9.44608C46.0163 9.24722 46.0486 9.04835 46.0486 8.88263C46.0486 8.18661 45.6934 7.82203 44.9506 7.82203H43.5944Z" fill="var(--icon-color)"></path><path d="M53.4112 3.31445H64.1966L63.2602 7.82203H57.0602L55.5424 15.2131H60.8706L59.9341 19.7207H54.606L53.0883 27.0787H59.2883L58.3518 31.5862H47.5664L53.4112 3.31445Z" fill="var(--icon-color)"></path><path d="M65.3908 3.31445H71.397C74.4001 3.31445 75.8855 4.67335 75.8855 7.35801C75.8855 7.98775 75.821 8.65063 75.6595 9.41294L74.8199 13.5891C74.3033 16.1412 72.947 17.7984 70.7835 18.5607L72.4949 31.5862H67.4897L66.8762 19.4224H66.6178L64.0991 31.5862H59.5137L65.3908 3.31445ZM69.0397 7.82203L67.522 15.18H68.071C68.5553 15.18 68.8783 15.1468 69.0397 15.0806C69.6533 14.8485 70.073 14.3514 70.2345 13.5559L71.0741 9.37979C71.1064 9.18093 71.1387 8.98207 71.1387 8.81635C71.1387 8.12032 70.7835 7.75574 70.0408 7.75574H69.0397V7.82203Z" fill="var(--icon-color)"></path><path d="M84.1846 3.31445H88.7701L86.3159 15.18H89.0284L91.4826 3.31445H96.068L90.2232 31.5862H85.6378L88.0919 19.7207H85.3794L82.9253 31.5862H78.3398L84.1846 3.31445Z" fill="var(--icon-color)"></path><path d="M104.852 25.9186C104.012 29.9953 101.59 32.0171 97.6505 32.0171C94.389 32.0171 92.7744 30.625 92.7744 27.8741C92.7744 27.2775 92.839 26.6146 93.0005 25.9186L96.5203 8.98203C97.3598 4.90533 99.7494 2.88354 103.721 2.88354C106.983 2.88354 108.63 4.27559 108.63 7.02654C108.63 7.62313 108.565 8.25286 108.404 8.98203L104.852 25.9186ZM103.786 8.98203C103.818 8.78317 103.85 8.5843 103.85 8.41858C103.85 7.7557 103.495 7.39112 102.753 7.39112H102.72C101.816 7.39112 101.267 7.92142 101.041 8.98203L97.5213 25.9186C97.489 26.1174 97.4567 26.3163 97.4567 26.482C97.4567 27.1781 97.8119 27.5095 98.5546 27.5095C99.4588 27.5095 100.04 26.9792 100.234 25.9186L103.786 8.98203Z" fill="var(--icon-color)"></path><path d="M118.188 25.9186C117.349 29.9953 114.927 32.0171 110.987 32.0171C107.726 32.0171 106.111 30.6251 106.111 27.8741C106.111 27.2775 106.176 26.6146 106.337 25.9186L111.02 3.31445H115.605L110.923 25.9186C110.89 26.1175 110.858 26.3163 110.858 26.4821C110.858 27.1781 111.213 27.5095 111.956 27.5095C112.86 27.5095 113.442 26.9792 113.635 25.9186L118.285 3.31445H122.871L118.188 25.9186Z" fill="var(--icon-color)"></path><path d="M123.193 8.98203C124.033 4.90533 126.422 2.88354 130.394 2.88354C133.656 2.88354 135.302 4.27559 135.302 7.02654C135.302 7.62313 135.238 8.25286 135.076 8.98203L134.237 12.9924H129.651L130.491 8.98203C130.523 8.78317 130.556 8.5843 130.556 8.41858C130.556 7.7557 130.2 7.39112 129.458 7.39112H129.425C128.521 7.39112 127.972 7.92142 127.746 8.98203L127.23 11.501C127.197 11.6335 127.197 11.7661 127.197 11.8987C127.197 12.9924 128.101 14.2851 129.877 15.8428C131.589 17.3012 132.461 19.0246 132.461 20.947C132.461 21.4442 132.396 21.9413 132.299 22.4385L131.557 25.9517C130.717 30.0284 128.327 32.0502 124.356 32.0502C121.094 32.0502 119.447 30.6582 119.447 27.8741C119.447 27.2775 119.512 26.6478 119.673 25.9186L120.513 21.9082H125.098L124.259 25.9186C124.226 26.1174 124.194 26.3163 124.194 26.482C124.194 27.1781 124.549 27.5095 125.292 27.5095C126.196 27.5095 126.745 26.9792 126.971 25.9186L127.617 22.7699C127.649 22.6373 127.649 22.4716 127.649 22.339C127.649 21.179 126.777 19.8201 125.001 18.2955C123.29 16.8371 122.45 15.1137 122.45 13.1582C122.45 12.661 122.515 12.1307 122.612 11.6004L123.193 8.98203Z" fill="var(--icon-color)"></path><path d="M137.821 3.31445H148.607L147.67 7.82203H141.47L139.953 15.18H145.313L144.377 19.6876H139.048L137.531 27.0455H143.698L142.762 31.5531H131.977L137.821 3.31445Z" fill="var(--icon-color)"></path></svg>